<svg width="70" height="67" viewBox="0 0 70 67" fill="none" xmlns="http://www.w3.org/2000/svg">
<g clip-path="url(#clip0_426_1005)">
<path d="M68.6219 29.4485C67.3104 22.7013 63.7217 16.609 58.4561 12.1909C53.1906 7.77287 46.5676 5.29693 39.6951 5.17733C32.8226 5.05773 26.1175 7.30173 20.7014 11.5339C15.2853 15.7661 11.4868 21.7298 9.94128 28.4273C8.39577 35.1248 9.19702 42.15 12.211 48.3275C15.225 54.5049 20.2688 59.4601 26.4988 62.364C32.7288 65.2679 39.767 65.9444 46.4361 64.2803C53.1051 62.6163 59.0005 58.7125 63.1359 53.2222" stroke="#DCC5B2" stroke-linecap="round"/>
<path d="M7.5 6L6.43934 12.4393L0 13.5L6.43934 14.5607L7.5 21L8.56066 14.5607L15 13.5L8.56066 12.4393L7.5 6Z" fill="#C19081"/>
<path d="M15.5 28L15.005 31.005L12 31.5L15.005 31.995L15.5 35L15.995 31.995L19 31.5L15.995 31.005L15.5 28Z" fill="#C19081"/>
<path d="M21.5 0L21.005 3.00503L18 3.5L21.005 3.99497L21.5 7L21.995 3.99497L25 3.5L21.995 3.00503L21.5 0Z" fill="#C19081"/>
</g>
<defs>
<clipPath id="clip0_426_1005">
<rect width="70" height="67" fill="white"/>
</clipPath>
</defs>
</svg>
