<svg width="69" height="66" viewBox="0 0 69 66" fill="none" xmlns="http://www.w3.org/2000/svg">
<g clip-path="url(#clip0_440_979)">
<mask id="mask0_440_979" style="mask-type:luminance" maskUnits="userSpaceOnUse" x="0" y="0" width="69" height="66">
<path d="M69 0H0V66H69V0Z" fill="white"/>
</mask>
<g mask="url(#mask0_440_979)">
<path d="M68.6217 29.4486C67.3102 22.7014 63.7215 16.6091 58.4559 12.191C53.1904 7.77294 46.5674 5.297 39.6949 5.1774C32.8224 5.0578 26.1173 7.3018 20.7012 11.534C15.2851 15.7662 11.4866 21.7299 9.94108 28.4274C8.39557 35.1249 9.19682 42.1501 12.2108 48.3276C15.2248 54.505 20.2686 59.4602 26.4986 62.3641C32.7286 65.268 39.7668 65.9445 46.4359 64.2804C53.1049 62.6164 59.0003 58.7126 63.1357 53.2223" stroke="#DCC5B2" stroke-linecap="round"/>
<path d="M32.538 17.9156L32.6368 18.5155L33.2367 18.6143L39.0762 19.5762L33.2367 20.538L32.6368 20.6368L32.538 21.2367L31.5762 27.0762L30.6143 21.2367L30.5155 20.6368L29.9156 20.538L24.0762 19.5762L29.9156 18.6143L30.5155 18.5155L30.6143 17.9156L31.5762 12.0762L32.538 17.9156Z" fill="#C19081"/>
<path d="M20.5 1L20.995 4.00503L24 4.5L20.995 4.99497L20.5 8L20.005 4.99497L17 4.5L20.005 4.00503L20.5 1Z" fill="#C19081"/>
<path d="M15.5 26L15.995 29.005L19 29.5L15.995 29.995L15.5 33L15.005 29.995L12 29.5L15.005 29.005L15.5 26Z" fill="#C19081"/>
</g>
</g>
<defs>
<clipPath id="clip0_440_979">
<rect width="69" height="66" fill="white"/>
</clipPath>
</defs>
</svg>
