<svg width="68" height="101" viewBox="0 0 68 101" fill="none" xmlns="http://www.w3.org/2000/svg">
<path d="M32.5 21L34.9749 36.0251L50 38.5L34.9749 40.9749L32.5 56L30.0251 40.9749L15 38.5L30.0251 36.0251L32.5 21Z" fill="white"/>
<path d="M60.5 6L61.5607 12.4393L68 13.5L61.5607 14.5607L60.5 21L59.4393 14.5607L53 13.5L59.4393 12.4393L60.5 6Z" fill="white"/>
<path d="M57.5 86L58.5607 92.4393L65 93.5L58.5607 94.5607L57.5 101L56.4393 94.5607L50 93.5L56.4393 92.4393L57.5 86Z" fill="white"/>
<path d="M7.5 0L8.56066 6.43934L15 7.5L8.56066 8.56066L7.5 15L6.43934 8.56066L0 7.5L6.43934 6.43934L7.5 0Z" fill="white"/>
</svg>
