<svg width="25" height="35" viewBox="0 0 25 35" fill="none" xmlns="http://www.w3.org/2000/svg">
<path d="M6.93269 12.5206L6.87441 12.8744L6.5206 12.9327L3.07644 13.5L6.5206 14.0673L6.87441 14.1256L6.93269 14.4794L7.5 17.9236L8.06731 14.4794L8.12559 14.1256L8.4794 14.0673L11.9236 13.5L8.4794 12.9327L8.12559 12.8744L8.06731 12.5206L7.5 9.07644L6.93269 12.5206Z" fill="#DCC5B2" stroke="white"/>
<path d="M15.4984 31.0863L15.4401 31.4401L15.0863 31.4984L15.0764 31.5L15.0863 31.5016L15.4401 31.5599L15.4984 31.9137L15.5 31.9236L15.5016 31.9137L15.5599 31.5599L15.9137 31.5016L15.9236 31.5L15.9137 31.4984L15.5599 31.4401L15.5016 31.0863L15.5 31.0764L15.4984 31.0863Z" fill="#C19081" stroke="white"/>
<path d="M21.4984 3.08629L21.4401 3.4401L21.0863 3.49838L21.0764 3.5L21.0863 3.50162L21.4401 3.5599L21.4984 3.91371L21.5 3.92356L21.5016 3.91371L21.5599 3.5599L21.9137 3.50162L21.9236 3.5L21.9137 3.49838L21.5599 3.4401L21.5016 3.08629L21.5 3.07644L21.4984 3.08629Z" fill="#C19081" stroke="white"/>
</svg>
