<svg width="1440" height="668" viewBox="0 0 1440 668" fill="none" xmlns="http://www.w3.org/2000/svg">
<g clip-path="url(#clip0_471_988)">
<path d="M-4 342C32 626 154 680.8 210 636C280 580 220 508 154 538C111.495 557.321 154.882 614 186 606C217.118 598 216 564.25 186 568C138 574 88 734 -16 636" stroke="#DCC5B2"/>
<path d="M-2 152.004C23.9999 86 86.3989 25.9596 140 14.0039C279 -17 234 112.448 194 128.002C154 143.555 128 88.9937 148 59C175.552 17.6802 255.354 59.3444 330 78C410 97.9937 576 128.002 634 128.002C734.796 128.002 1078.88 87.1901 1010 14.0039C946 -54 864 298 1486 0" stroke="#DCC5B2"/>
</g>
<defs>
<clipPath id="clip0_471_988">
<rect width="1440" height="668" fill="white"/>
</clipPath>
</defs>
</svg>
